<?xml version="1.0" encoding="UTF-8" standalone="no"?>
<svg
   id="SvgjsSvg1026"
   width="288"
   height="288"
   version="1.1"
   sodipodi:docname="quill.svg"
   inkscape:version="1.2.2 (732a01da63, 2022-12-09)"
   xmlns:inkscape="http://www.inkscape.org/namespaces/inkscape"
   xmlns:sodipodi="http://sodipodi.sourceforge.net/DTD/sodipodi-0.dtd"
   xmlns="http://www.w3.org/2000/svg"
   xmlns:svg="http://www.w3.org/2000/svg">
  <sodipodi:namedview
     id="namedview9"
     pagecolor="#ffffff"
     bordercolor="#000000"
     borderopacity="0.25"
     inkscape:showpageshadow="2"
     inkscape:pageopacity="0.0"
     inkscape:pagecheckerboard="0"
     inkscape:deskcolor="#d1d1d1"
     showgrid="false"
     inkscape:zoom="2.9444444"
     inkscape:cx="144.33962"
     inkscape:cy="143.15095"
     inkscape:window-width="1920"
     inkscape:window-height="1046"
     inkscape:window-x="-11"
     inkscape:window-y="-11"
     inkscape:window-maximized="1"
     inkscape:current-layer="SvgjsSvg1026" />
  <defs
     id="SvgjsDefs1027" />
  <g
     id="SvgjsG1028"
     style="fill:#cccccc">
    <svg
       viewBox="0 0 60 60"
       width="288"
       height="288"
       version="1.1"
       id="svg5"
       style="fill:#cccccc">
      <path
         d="M59.29834.04541a1.00348,1.00348,0,0,0-1.24707.63818c-.75439,2.26416-6.38818,3.57373-12.91162,5.09082-8.46631,1.96826-19.00293,4.418-27.6543,10.36816C12.88849,18.90088-.9314,27.20758,6.73328,42.69684,3.37012,47.14752,0,51.8158,0,59a.99987.99987,0,0,0,1.76807.64014l5-6a.99434.99434,0,0,0,.21582-.46143A48.805,48.805,0,0,1,9.1886,45.03827c.8252.03461,1.65247.0863,2.46326.14825,1.22705.09375,2.46191.188,3.68994.188,4.606-.00049,9.09912-1.32861,12.58691-9.00293C31.54,27.34277,36.95264,24.502,42.68359,21.49463,49.29,18.02734,56.12109,14.44238,59.96,1.27979A.9997.9997,0,0,0,59.29834.04541ZM5.064,52.561,2.2334,55.958a22.69091,22.69091,0,0,1,4.4541-9.8374A51.94828,51.94828,0,0,0,5.064,52.561ZM42.69409,19.22888l-2.24683-1.12341a1.00012,1.00012,0,1,0-.89453,1.78906l.96417.48212a31.97083,31.97083,0,0,0-9.33331,6.78149A12.87811,12.87811,0,0,1,26.04932,28a.98943.98943,0,0,0-1.02637,1,1.0082,1.0082,0,0,0,1.07275,1,20.50679,20.50679,0,0,0,3.03186-.20117,29.86818,29.86818,0,0,0-2.884,5.43091C23.64777,36.90717,21.94672,37,19,37a1,1,0,0,0,0,2,15.55133,15.55133,0,0,0,5.65057-.72638c-3.57208,5.6217-7.91125,5.29578-12.84637,4.91876-.60541-.04608-1.22278-.08856-1.84369-.12457C15.78137,29.28448,28.22833,19.2536,48.3418,11.93994a1.00016,1.00016,0,0,0-.68359-1.87988c-17.80566,6.4751-29.78516,15.062-36.62012,26.44629a1.05026,1.05026,0,0,0-.05908.0918,43.16253,43.16253,0,0,1-2.88727,4.2951C6.10223,36.4007,6.13568,32.62018,7.233,29.47748a10.87328,10.87328,0,0,0,.86078,2.94537,1,1,0,1,0,1.8125-.8457,12.86572,12.86572,0,0,1-.9165-5.56653,25.05725,25.05725,0,0,1,6.838-6.467A11.00519,11.00519,0,0,0,14,25a1,1,0,0,0,2,0c0-.79663.33624-3.751,4.577-8.46478a61.86926,61.86926,0,0,1,14.62073-6.16693l-.09222.18445a1.00012,1.00012,0,0,0,1.78906.89453l.90607-1.81219c2.70551-.72766,5.33826-1.34235,7.79169-1.9129C50.2998,6.62793,54.20752,5.71924,56.78516,4.4165,53.30151,13.26288,48.16394,16.3374,42.69409,19.22888Z"
         data-name="Layer 1"
         fill="#594848"
         class="color000 svgShape"
         id="path3"
         style="fill:#cccccc" />
    </svg>
  </g>
  <path
     style="fill:#000000;stroke-width:0.339623"
     d="M 3.5532809,287.61028 C 2.1907879,287.25164 0.68402524,285.63879 0.38333843,284.21717 0.04239503,282.60521 0.51812715,273.16735 1.1571361,268.86611 4.1252662,248.88727 11.96078,232.3417 29.484813,209.04903 l 3.057652,-4.06418 -0.611567,-1.19997 c -3.831763,-7.51838 -7.439424,-18.43813 -9.20448,-27.86035 -1.037707,-5.53948 -1.289666,-17.203 -0.494857,-22.90755 2.167756,-15.55854 9.392649,-30.50571 20.938699,-43.31887 9.798324,-10.873622 20.873085,-19.808167 36.301439,-29.286118 2.895283,-1.778631 6.868868,-4.300971 8.830189,-5.605207 12.841812,-8.539502 32.193062,-18.127049 50.280792,-24.911538 19.31338,-7.244209 39.26,-12.898277 75.37959,-21.367088 27.90189,-6.542042 39.27685,-9.59826 47.37736,-12.729317 10.3301,-3.992856 14.83294,-7.1228673 17.30292,-12.0275804 1.37775,-2.735857 2.35009,-3.43163895 4.79564,-3.43163895 1.39765,0 1.74651,0.16138318 2.94967,1.36454675 1.35918,1.3591845 1.36384,1.3728641 1.18532,3.4811321 -0.4704,5.5554065 -8.47256,26.1416955 -14.38791,37.0142595 -6.50999,11.965517 -12.77547,20.420124 -21.84324,29.475143 -10.60072,10.585824 -21.79049,18.257312 -42.81372,29.352256 -27.61138,14.57181 -36.27356,20.23571 -46.98462,30.72163 -11.25833,11.02168 -19.01995,22.72085 -26.37866,39.76085 -5.80495,13.44206 -11.7258,22.70321 -19.32438,30.22641 -9.97258,9.87363 -20.376219,14.43678 -35.689705,15.6539 -5.246447,0.41698 -11.444258,0.27286 -22.924529,-0.53307 -3.735849,-0.26226 -8.249641,-0.5741 -10.03065,-0.69297 l -3.238196,-0.21613 -1.929193,5.71489 c -3.282731,9.72451 -5.835586,19.30623 -7.901854,29.65829 -0.503327,2.5217 -1.044684,4.82891 -1.20301,5.12714 -0.488435,0.92003 -24.7736773,29.9951 -25.4597181,30.48119 -0.9575871,0.67848 -2.7407602,0.98911 -3.910514,0.68119 z m 14.1702031,-27.07959 6.685747,-8.07156 1.078345,-5.239 c 1.346668,-6.54261 3.599929,-15.42825 5.374813,-21.19535 1.150545,-3.73845 1.458726,-5.21496 0.952301,-4.56251 -9.24472,11.91028 -16.004478,25.6774 -19.58008,39.87736 -1.520583,6.03876 -1.772202,7.30849 -1.4431,7.28225 0.135424,-0.0108 3.254812,-3.65184 6.931974,-8.09119 z m 66.119723,-52.86134 c 13.654671,-1.96458 23.622773,-8.32956 32.505063,-20.75561 1.18262,-1.65444 2.01721,-3.05465 1.85466,-3.11156 -0.16255,-0.0569 -1.72235,0.28409 -3.46622,0.7578 -5.76106,1.56494 -10.88482,2.27222 -17.774444,2.45358 -5.792397,0.15247 -6.573797,0.1064 -7.634741,-0.45015 -2.483165,-1.30263 -3.417365,-4.233 -2.059448,-6.46005 1.311269,-2.15054 1.733366,-2.25705 9.996239,-2.5223 10.833384,-0.34776 15.640114,-1.37999 22.652174,-4.86452 5.86726,-2.91563 5.90703,-2.95345 7.93634,-7.5481 2.9598,-6.70141 6.54599,-13.40393 10.31757,-19.28333 0.95254,-1.48489 1.67129,-2.7604 1.59722,-2.83447 -0.0741,-0.0741 -1.71199,0.029 -3.63982,0.22915 -1.92784,0.2001 -5.49195,0.40474 -7.92025,0.45475 -3.89878,0.0803 -4.54961,0.0118 -5.56536,-0.58595 -3.22384,-1.89709 -3.04436,-6.3449 0.32535,-8.06316 0.9221,-0.47019 2.04831,-0.59521 5.40982,-0.60056 6.31808,-0.0101 11.19928,-0.79103 18.32532,-2.93202 l 2.8725,-0.86304 4.5992,-4.47452 c 11.2056,-10.90184 24.04995,-20.09827 37.11808,-26.576204 1.82122,-0.902788 3.31132,-1.725717 3.31132,-1.828725 0,-0.103007 -1.30131,-0.832666 -2.89179,-1.621464 -3.23226,-1.603039 -4.23689,-2.771949 -4.23902,-4.932176 -0.002,-1.689844 0.78936,-3.165219 2.13786,-3.987449 1.91757,-1.169212 2.99901,-0.910423 9.45016,2.261405 l 5.98552,2.942891 5.99057,-3.277732 c 15.45561,-8.456509 25.40748,-15.54136 34.17047,-24.326352 8.87428,-8.896551 15.95992,-18.981407 22.07343,-31.416653 2.64082,-5.371594 5.54871,-12.057111 5.33655,-12.269264 -0.0602,-0.06023 -1.81725,0.652515 -3.90448,1.58388 -8.81006,3.931225 -19.56378,6.982322 -49.57652,14.066089 -11.53169,2.72177 -24.71106,5.903321 -29.28747,7.070112 l -8.32076,2.121432 -2.54717,4.91076 c -1.93051,3.721888 -2.82654,5.098337 -3.70116,5.685572 -3.63784,2.442509 -8.37131,-1.458458 -6.68037,-5.505446 0.29777,-0.712651 0.48395,-1.353175 0.41373,-1.423389 -0.16271,-0.16271 -10.33273,2.888086 -15.67371,4.70179 -16.6031,5.638123 -34.99432,13.769009 -49.38496,21.833416 -5.694968,3.191424 -5.744271,3.235514 -11.139791,9.962427 -5.533639,6.899108 -10.081845,14.20661 -12.766603,20.51183 -2.228192,5.23295 -2.705827,7.0995 -3.482083,13.60767 -0.460884,3.86405 -4.664764,5.58002 -7.606375,3.10482 -1.518962,-1.27813 -1.774264,-2.72808 -1.220465,-6.93145 0.918646,-6.97259 3.09599,-13.5227 6.432531,-19.350986 1.015866,-1.774518 1.791418,-3.282011 1.723446,-3.34998 -0.217786,-0.217787 -6.650161,4.350685 -10.857583,7.711396 -5.418075,4.32772 -13.788442,12.73895 -18.258246,18.34737 -4.284883,5.37639 -4.281647,5.36536 -3.701676,12.61195 0.496868,6.20824 1.371875,10.49645 3.322049,16.28058 1.701279,5.04593 1.736885,6.06097 0.27362,7.79996 -1.51744,1.80338 -4.094857,2.15683 -6.108191,0.83764 -1.591448,-1.04275 -3.932885,-6.94863 -5.205556,-13.13014 -0.616113,-2.99251 -0.661153,-3.08389 -1.042332,-2.11471 -0.723967,1.84076 -1.977655,7.07989 -2.602036,10.87384 -0.822434,4.9974 -0.837005,14.51028 -0.03019,19.71202 1.088944,7.02071 3.699917,16.09721 6.346301,22.06157 l 0.75345,1.69811 1.015774,-1.23835 c 2.114453,-2.57779 7.51607,-10.53869 11.211245,-16.52313 13.088123,-21.19657 22.640788,-33.36455 38.188849,-48.64415 25.261362,-24.82518 55.610092,-44.943654 96.402982,-63.906481 14.84482,-6.900705 42.41791,-17.933173 44.81981,-17.933173 3.06847,0 5.38187,3.326111 4.29558,6.176004 -0.58875,1.54461 -2.02618,2.49033 -6.03442,3.970192 C 137.10928,92.182722 78.6385,138.77826 50.442097,200.41472 c -1.571437,3.43511 -2.702374,6.30009 -2.513191,6.36661 0.189184,0.0665 3.963234,0.38987 8.386778,0.71854 10.559299,0.78456 22.731528,0.8595 27.527523,0.16948 z"
     id="path181" />
</svg>
